<?xml version="1.0" encoding="UTF-8"?>
<svg width="16px" height="16px" viewBox="0 0 16 16" version="1.1" xmlns="http://www.w3.org/2000/svg" xmlns:xlink="http://www.w3.org/1999/xlink">
    <!-- Generator: Sketch 54.1 (76490) - https://sketchapp.com -->
    <title>icon_mail-16px</title>
    <desc>Created with Sketch.</desc>
    <g id="icon_mail-16px" stroke="none" stroke-width="1" fill="none" fill-rule="evenodd">
        <rect id="Rectangle" fill="#FFFFFF" opacity="0" x="0" y="0" width="16" height="16"></rect>
        <path d="M13.2866,5.40965 L8.0001,9.11015 L2.7136,5.40965 C2.4871,5.25115 2.4321,4.93965 2.5901,4.71315 C2.7491,4.48715 3.0606,4.43215 3.2866,4.59015 L8.0001,7.88965 L12.7136,4.59015 C12.9386,4.43215 13.2516,4.48665 13.4096,4.71315 C13.5676,4.93965 13.5131,5.25115 13.2866,5.40965 M14.1226,3.86915 C13.8711,3.62315 13.5811,3.50015 13.2521,3.50015 L2.7476,3.50015 C2.4191,3.50015 2.1286,3.62315 1.8771,3.86915 C1.6256,4.11565 1.5001,4.39965 1.5001,4.72165 L1.5001,11.27815 C1.5001,11.60015 1.6256,11.88465 1.8771,12.13065 C2.1286,12.37665 2.4191,12.50015 2.7476,12.50015 L13.2521,12.50015 C13.5811,12.50015 13.8711,12.37665 14.1226,12.13065 C14.3741,11.88465 14.5001,11.60015 14.5001,11.27815 L14.5001,4.72165 C14.5001,4.39965 14.3741,4.11565 14.1226,3.86915" id="Fill-1" fill="#4A4A4A"></path>
    </g>
</svg>