<svg xmlns="http://www.w3.org/2000/svg" xmlns:xlink="http://www.w3.org/1999/xlink" width="32" height="32" viewBox="0 0 32 32"><defs><style>.a{fill:#fff;stroke:#707070;}.b{clip-path:url(#a);}</style><clipPath id="a"><rect class="a" width="32" height="32"/></clipPath></defs><g class="b"><path d="M18.955,1.5H10.227A2.728,2.728,0,0,0,7.5,4.227V22.773A2.728,2.728,0,0,0,10.227,25.5h8.727a2.728,2.728,0,0,0,2.727-2.727V4.227A2.728,2.728,0,0,0,18.955,1.5ZM14.591,24.409a1.636,1.636,0,1,1,1.636-1.636A1.634,1.634,0,0,1,14.591,24.409ZM19.5,20.045H9.682V4.773H19.5Z" transform="translate(1.5 2.5)"/></g></svg>