<?xml version="1.0" encoding="UTF-8"?>
<svg width="16px" height="16px" viewBox="0 0 16 16" version="1.1" xmlns="http://www.w3.org/2000/svg" xmlns:xlink="http://www.w3.org/1999/xlink">
    <!-- Generator: Sketch 54.1 (76490) - https://sketchapp.com -->
    <title>icon_error-16px</title>
    <desc>Created with Sketch.</desc>
    <g id="icon_error-16px" stroke="none" stroke-width="1" fill="none" fill-rule="evenodd">
        <rect id="Rectangle" fill-opacity="0" fill="#FFFFFF" fill-rule="nonzero" x="0" y="0" width="16" height="16"></rect>
        <path d="M11.75,8 C11.75,8.76425 11.519,9.473 11.126,10.0655 L5.9345,4.874 C6.527,4.481 7.23575,4.25 8,4.25 C10.07075,4.25 11.75,5.92925 11.75,8 Z M12.015125,12.984875 C12.161375,13.131125 12.161375,13.368875 12.015125,13.515125 C11.941625,13.588625 11.845625,13.625375 11.749625,13.625375 C11.654375,13.625375 11.558375,13.588625 11.484875,13.515125 L9.426875,11.457125 C8.985875,11.640125 8.507375,11.750375 7.999625,11.750375 C5.928875,11.750375 4.249625,10.071125 4.249625,8.000375 C4.249625,7.492625 4.359875,7.014125 4.542875,6.573125 L2.484875,4.515125 C2.338625,4.368875 2.338625,4.131125 2.484875,3.984875 C2.631125,3.838625 2.868875,3.838625 3.015125,3.984875 L12.015125,12.984875 Z" id="Combined-Shape" fill="#CC0000"></path>
    </g>
</svg>