<?xml version="1.0" encoding="UTF-8"?>
<svg width="16px" height="16px" viewBox="0 0 16 16" version="1.1" xmlns="http://www.w3.org/2000/svg" xmlns:xlink="http://www.w3.org/1999/xlink">
    <!-- Generator: Sketch 54.1 (76490) - https://sketchapp.com -->
    <title>icon_messages-16px</title>
    <desc>Created with Sketch.</desc>
    <defs>
        <path d="M13.85,12.9 C13.6,13.35 13.75,13.8 14,14.2 C14.25,14.55 14,15 13.6,15 L10.1,15 C8.35,15 6.8,14 6.05,12.5 L6.4,12.5 C9.6,12.5 12.3,10 12.5,6.85 C13.65,7.65 14.45,8.95 14.5,10.45 C14.55,11.35 14.3,12.2 13.85,12.9 Z M6.3,1.5 C9.2,1.4 11.55,3.7 11.5,6.55 C11.5,9.3 9.15,11.5 6.4,11.5 L2.55,11.5 L2.35,11.5 C1.9,11.5 1.7,11 1.95,10.7 C2.5,10.05 2.4,9.5 2.3,9.3 L2.25,9.15 C1.75,8.35 1.5,7.4 1.5,6.4 C1.55,3.75 3.7,1.6 6.3,1.5 Z M4.5,7.5 C4.9,7.5 5.25,7.15 5.25,6.75 C5.25,6.35 4.9,6 4.5,6 C4.1,6 3.75,6.35 3.75,6.75 C3.75,7.15 4.1,7.5 4.5,7.5 Z M6.5,7.5 C6.9,7.5 7.25,7.15 7.25,6.75 C7.25,6.35 6.9,6 6.5,6 C6.1,6 5.75,6.35 5.75,6.75 C5.75,7.15 6.1,7.5 6.5,7.5 Z M8.5,7.5 C8.9,7.5 9.25,7.15 9.25,6.75 C9.25,6.35 8.9,6 8.5,6 C8.1,6 7.75,6.35 7.75,6.75 C7.75,7.15 8.1,7.5 8.5,7.5 Z" id="path-1"></path>
    </defs>
    <g id="icon_messages-16px" stroke="none" stroke-width="1" fill="none" fill-rule="evenodd">
        <rect id="Rectangle" fill="#FFFFFF" opacity="0" x="0" y="0" width="16" height="16"></rect>
        <mask id="mask-2" fill="white">
            <use xlink:href="#path-1"></use>
        </mask>
        <use id="Combined-Shape" fill="#4A4A4A" xlink:href="#path-1"></use>
    </g>
</svg>