<?xml version="1.0" encoding="UTF-8"?>
<svg width="16px" height="16px" viewBox="0 0 16 16" version="1.1" xmlns="http://www.w3.org/2000/svg" xmlns:xlink="http://www.w3.org/1999/xlink">
    <!-- Generator: Sketch 54.1 (76490) - https://sketchapp.com -->
    <title>icon_demographics-16px</title>
    <desc>Created with Sketch.</desc>
    <g id="icon_demographics-16px" stroke="none" stroke-width="1" fill="none" fill-rule="evenodd">
        <rect id="Rectangle" fill="#FFFFFF" opacity="0" x="0" y="0" width="16" height="16"></rect>
        <path d="M2.5,13.0405 C2.5465,11.852 3.332,10.82 4.465,10.4585 L6.0915,9.7265 C6.404,9.627 6.616,9.3365 6.616,9.0085 L6.616,8.208 C6.616,8.049 6.5525,7.8955 6.4345,7.7885 C6.109,7.4945 5.4585,6.777 5.456,5.744 C5.456,5.74 5.457,5.738 5.4535,5.736 C5.4205,5.715 5.0635,5.4735 5.0635,4.936 C5.0635,4.438 5.4095,4.3 5.4905,4.275 C5.5,4.2715 5.5035,4.262 5.5,4.2525 C5.4165,4.0365 4.636,1.922 6.147,2.204 C6.152,2.205 6.1565,2.2035 6.159,2.1995 C6.2105,2.117 6.796,1.25 8.6975,1.25 C10.689,1.25 11.135,2.3875 10.3415,4.256 C10.338,4.2635 10.3405,4.2715 10.348,4.275 C10.4135,4.3015 10.713,4.45 10.713,4.936 C10.713,5.4665 10.5335,5.739 10.3355,5.754 C10.326,5.7545 10.319,5.7605 10.32,5.7695 C10.332,5.909 10.3935,6.981 9.5445,7.839 C9.434,7.9505 9.363,8.096 9.363,8.2535 L9.363,9.0175 C9.363,9.341 9.5695,9.6285 9.8765,9.7315 L11.574,10.4885 C12.69,10.8635 13.457,11.891 13.498,13.068 L13.498,13.9705 C13.498,14.54 13.0365,15.002 12.467,15.002 L3.531,15.002 C2.9615,15.002 2.5,14.54 2.5,13.9705 L2.5,13.0405 Z" id="Fill-1" fill="#4A4A4A"></path>
    </g>
</svg>