<?xml version="1.0" encoding="UTF-8"?>
<svg width="16px" height="16px" viewBox="0 0 16 16" version="1.1" xmlns="http://www.w3.org/2000/svg" xmlns:xlink="http://www.w3.org/1999/xlink">
    <!-- Generator: Sketch 54.1 (76490) - https://sketchapp.com -->
    <title>0607_icons_16px</title>
    <desc>Created with Sketch.</desc>
    <g id="0607_icons_16px" stroke="none" stroke-width="1" fill="none" fill-rule="evenodd">
        <rect id="Rectangle" fill-opacity="0" fill="#FFFFFF" fill-rule="nonzero" x="0" y="0" width="16" height="16"></rect>
        <path d="M9.15685651,8.00010227 L12.2600791,4.89680916 C12.5799736,4.57690734 12.5799736,4.05982819 12.2600791,3.73992637 C11.9401845,3.42002454 11.4231171,3.42002454 11.1032226,3.73992637 L8,6.84321947 L4.89677742,3.73992637 C4.57688287,3.42002454 4.05981546,3.42002454 3.73992091,3.73992637 C3.42002636,4.05982819 3.42002636,4.57690734 3.73992091,4.89680916 L6.84314349,8.00010227 L3.73992091,11.1033954 C3.42002636,11.4232972 3.42002636,11.9403764 3.73992091,12.2602782 C3.89945912,12.41982 4.10890414,12.5 4.31834917,12.5 C4.52779419,12.5 4.73723922,12.41982 4.89677742,12.2602782 L8,9.15698507 L11.1032226,12.2602782 C11.2627608,12.41982 11.4722058,12.5 11.6816508,12.5 C11.8910959,12.5 12.1005409,12.41982 12.2600791,12.2602782 C12.5799736,11.9403764 12.5799736,11.4232972 12.2600791,11.1033954 L9.15685651,8.00010227 Z" id="Fill-1" fill="#4A4A4A"></path>
    </g>
</svg>