<svg xmlns="http://www.w3.org/2000/svg" width="32" height="32" viewBox="0 0 32 32"><defs><style>.a{fill:#fff;stroke:rgba(0,0,0,0.6);}.b{fill:rgba(0,0,0,0.6);}.c{stroke:none;}.d{fill:none;}</style></defs><g transform="translate(-1356 -1328)"><g class="a" transform="translate(1356 1328)"><circle class="c" cx="16" cy="16" r="16"/><circle class="d" cx="16" cy="16" r="15.5"/></g><path class="b" d="M8,15a2,2,0,1,0,2,2A2.006,2.006,0,0,0,8,15Zm12,0a2,2,0,1,0,2,2A2.006,2.006,0,0,0,20,15Zm-6,0a2,2,0,1,0,2,2A2.006,2.006,0,0,0,14,15Z" transform="translate(1358 1327)"/></g></svg>