<?xml version="1.0" encoding="iso-8859-1"?>
<!-- Generator: Adobe Illustrator 19.0.0, SVG Export Plug-In . SVG Version: 6.00 Build 0)  -->
<svg version="1.1" id="Layer_1" xmlns="http://www.w3.org/2000/svg" xmlns:xlink="http://www.w3.org/1999/xlink" x="0px" y="0px"
	 viewBox="0 0 512 512" style="enable-background:new 0 0 512 512;" xml:space="preserve">
<path style="fill:#E79C25;" d="M464.24,201.288L355.056,57.793l12.233-9.308c39.56-30.102,96.235-22.406,126.339,17.156
	c30.101,39.562,22.406,96.238-17.156,126.34L464.24,201.288z"/>
<path style="fill:#F0C838;" d="M47.76,201.288l-12.232-9.308c-39.561-30.102-47.257-86.778-17.156-126.34
	C32.956,46.477,54.128,34.138,77.99,30.898c23.866-3.242,47.559,3.006,66.724,17.588l12.232,9.308l-20.223,26.578l-68.739,90.341
	L47.76,201.288z"/>
<rect x="122.235" y="424.659" transform="matrix(-0.8217 -0.57 0.57 -0.8217 -5.309 905.0453)" style="fill:#6F6F6F;" width="33.398" height="57.389"/>
<rect x="346.918" y="436.656" transform="matrix(-0.57 -0.8217 0.8217 -0.57 217.1972 1020.3832)" style="fill:#444444;" width="57.389" height="33.398"/>
<path style="fill:#70C9D8;" d="M256,471.965c-123.078,0-223.208-100.131-223.208-223.208S132.923,25.55,256,25.55
	s223.208,100.13,223.208,223.207C479.208,371.835,379.078,471.965,256,471.965z"/>
<path style="fill:#53B8DA;" d="M256,471.965V25.55c123.078,0,223.208,100.13,223.208,223.207
	C479.208,371.835,379.078,471.965,256,471.965z"/>
<g>
	<path style="fill:#D7D7D7;" d="M256,421.823c-95.428,0-173.065-77.637-173.065-173.065c0-95.427,77.637-173.063,173.065-173.063
		s173.065,77.637,173.065,173.063C429.065,344.186,351.429,421.823,256,421.823z"/>
	<path style="fill:#D7D7D7;" d="M256,421.823V75.694c95.429,0,173.065,77.637,173.065,173.063
		C429.065,344.186,351.429,421.823,256,421.823z"/>
</g>
<polygon style="fill:#444444;" points="235.3,324.107 206.931,306.485 240.788,251.976 240.788,181.598 274.184,181.598 
	274.184,261.503 "/>
<g>
</g>
<g>
</g>
<g>
</g>
<g>
</g>
<g>
</g>
<g>
</g>
<g>
</g>
<g>
</g>
<g>
</g>
<g>
</g>
<g>
</g>
<g>
</g>
<g>
</g>
<g>
</g>
<g>
</g>
</svg>
